<svg xmlns="http://www.w3.org/2000/svg" id="svg60" width="1200" height="800" version="1.1" viewBox="-4.126 -7.659 35.759 45.954"><defs id="defs38"><linearGradient id="linear-gradient" x1="14.09" x2="-5.9" y1="1.87" y2="21.86" gradientUnits="userSpaceOnUse"><stop id="stop4" offset="0" stop-color="#008eff"/><stop id="stop6" offset=".01" stop-color="#008fff"/><stop id="stop8" offset=".26" stop-color="#00acff"/><stop id="stop10" offset=".51" stop-color="#00c0ff"/><stop id="stop12" offset=".76" stop-color="#00cdff"/><stop id="stop14" offset="1" stop-color="#00d1ff"/></linearGradient><linearGradient id="linear-gradient-2" x1="26.45" x2="-2.37" y1="15.32" y2="15.32" gradientUnits="userSpaceOnUse"><stop id="stop17" offset="0" stop-color="#ffd800"/><stop id="stop19" offset="1" stop-color="#ff8a00"/></linearGradient><linearGradient id="linear-gradient-3" x1="17.69" x2="-9.41" y1="18.05" y2="45.15" gradientUnits="userSpaceOnUse"><stop id="stop22" offset="0" stop-color="#ff3a44"/><stop id="stop24" offset="1" stop-color="#b11162"/></linearGradient><linearGradient id="linear-gradient-4" x1="-3.19" x2="8.92" y1="-8.29" y2="3.81" gradientUnits="userSpaceOnUse"><stop id="stop27" offset="0" stop-color="#328e71"/><stop id="stop29" offset=".07" stop-color="#2d9571"/><stop id="stop31" offset=".48" stop-color="#15bd74"/><stop id="stop33" offset=".8" stop-color="#06d575"/><stop id="stop35" offset="1" stop-color="#00de76"/></linearGradient><style id="style2">.cls-7{opacity:.07}</style></defs><g id="g58" transform="translate(.004)"><g id="g56"><path id="path40" fill="url(#linear-gradient)" d="M.55.48A2.39 2.39 0 000 2.15v26.34a2.41 2.41 0 00.55 1.67l.09.09 14.75-14.76v-.35L.64.39z"/><path id="path42" fill="url(#linear-gradient-2)" d="M20.31 20.41l-4.92-4.92v-.35l4.92-4.91.11.06 5.83 3.31c1.67.94 1.67 2.49 0 3.44l-5.83 3.31z"/><path id="path44" fill="url(#linear-gradient-3)" d="M20.42 20.35l-5-5L.55 30.16a2 2 0 002.45.07l17.39-9.88"/><path id="path46" fill="url(#linear-gradient-4)" d="M20.42 10.29L3 .4A1.93 1.93 0 00.55.48l14.84 14.84z"/><path id="path48" d="M20.31 20.24L3 30.06a2 2 0 01-2.39 0l-.09.09.09.09a2 2 0 002.39 0l17.39-9.88z" opacity=".1"/><path id="path50" d="M.55 30A2.43 2.43 0 010 28.32v.17a2.41 2.41 0 00.55 1.67l.09-.09z" class="cls-7"/><path id="path52" d="M26.25 16.86l-5.94 3.38.11.11L26.25 17a2.11 2.11 0 001.25-1.72 2.21 2.21 0 01-1.25 1.58z" class="cls-7"/><path id="path54" fill="#fff" d="M3 .58l23.25 13.19a2.2 2.2 0 011.25 1.55 2.09 2.09 0 00-1.25-1.72L3 .4C1.36-.54 0 .24 0 2.15v.17C0 .42 1.36-.37 3 .58z" opacity=".3"/></g></g></svg>